<svg id="eMHX7TS0RPg1" xmlns="http://www.w3.org/2000/svg" xmlns:xlink="http://www.w3.org/1999/xlink" viewBox="0 0 362 353" shape-rendering="geometricPrecision" text-rendering="geometricPrecision"><style><![CDATA[#eMHX7TS0RPg2 {animation: eMHX7TS0RPg2_s_do 20000ms linear infinite normal forwards}@keyframes eMHX7TS0RPg2_s_do { 0% {stroke-dashoffset: 0} 100% {stroke-dashoffset: 250}} #eMHX7TS0RPg3 {animation: eMHX7TS0RPg3_s_do 20000ms linear infinite normal forwards}@keyframes eMHX7TS0RPg3_s_do { 0% {stroke-dashoffset: 0} 100% {stroke-dashoffset: 250}} #eMHX7TS0RPg4 {animation: eMHX7TS0RPg4_s_do 20000ms linear infinite normal forwards}@keyframes eMHX7TS0RPg4_s_do { 0% {stroke-dashoffset: 0} 100% {stroke-dashoffset: 250}} #eMHX7TS0RPg5 {animation: eMHX7TS0RPg5_s_do 20000ms linear infinite normal forwards}@keyframes eMHX7TS0RPg5_s_do { 0% {stroke-dashoffset: 0} 100% {stroke-dashoffset: 250}} #eMHX7TS0RPg6 {animation: eMHX7TS0RPg6_s_do 20000ms linear infinite normal forwards}@keyframes eMHX7TS0RPg6_s_do { 0% {stroke-dashoffset: 0} 100% {stroke-dashoffset: 250}} #eMHX7TS0RPg7 {animation: eMHX7TS0RPg7_s_do 20000ms linear infinite normal forwards}@keyframes eMHX7TS0RPg7_s_do { 0% {stroke-dashoffset: 0} 100% {stroke-dashoffset: 250}} #eMHX7TS0RPg8 {animation: eMHX7TS0RPg8_s_do 20000ms linear infinite normal forwards}@keyframes eMHX7TS0RPg8_s_do { 0% {stroke-dashoffset: 0} 100% {stroke-dashoffset: 250}} #eMHX7TS0RPg9 {animation: eMHX7TS0RPg9_s_do 20000ms linear infinite normal forwards}@keyframes eMHX7TS0RPg9_s_do { 0% {stroke-dashoffset: 0} 100% {stroke-dashoffset: 250}} #eMHX7TS0RPg10 {animation: eMHX7TS0RPg10_s_do 20000ms linear infinite normal forwards}@keyframes eMHX7TS0RPg10_s_do { 0% {stroke-dashoffset: 0} 100% {stroke-dashoffset: 250}} #eMHX7TS0RPg11 {animation: eMHX7TS0RPg11_s_do 20000ms linear infinite normal forwards}@keyframes eMHX7TS0RPg11_s_do { 0% {stroke-dashoffset: 0} 100% {stroke-dashoffset: 250}} #eMHX7TS0RPg12 {animation: eMHX7TS0RPg12_s_do 20000ms linear infinite normal forwards}@keyframes eMHX7TS0RPg12_s_do { 0% {stroke-dashoffset: 0} 100% {stroke-dashoffset: 250}} #eMHX7TS0RPg13 {animation: eMHX7TS0RPg13_s_do 20000ms linear infinite normal forwards}@keyframes eMHX7TS0RPg13_s_do { 0% {stroke-dashoffset: 0} 100% {stroke-dashoffset: 250}} #eMHX7TS0RPg14 {animation: eMHX7TS0RPg14_s_do 20000ms linear infinite normal forwards}@keyframes eMHX7TS0RPg14_s_do { 0% {stroke-dashoffset: 0} 100% {stroke-dashoffset: 250}} #eMHX7TS0RPg15 {animation: eMHX7TS0RPg15_s_do 20000ms linear infinite normal forwards}@keyframes eMHX7TS0RPg15_s_do { 0% {stroke-dashoffset: 0} 100% {stroke-dashoffset: 250}} #eMHX7TS0RPg16 {animation: eMHX7TS0RPg16_s_do 20000ms linear infinite normal forwards}@keyframes eMHX7TS0RPg16_s_do { 0% {stroke-dashoffset: 0} 100% {stroke-dashoffset: 250}}]]></style><path id="eMHX7TS0RPg2" d="M178,242C178,255.807,189.193,267,203,267C216.807,267,228,255.807,228,242C228,228.193,216.807,217,203,217C189.193,217,178,228.193,178,242Z" fill="rgb(0,0,0)" stroke="none" stroke-width="1"/><path id="eMHX7TS0RPg3" d="M172.998,9.76271C172.998,15.1545,177.369,19.5254,182.761,19.5254C188.153,19.5254,192.523,15.1545,192.523,9.76271C192.523,4.37091,188.153,0,182.761,0C177.369,0,172.998,4.37091,172.998,9.76271Z" fill="rgb(0,0,0)" stroke="none" stroke-width="1"/><path id="eMHX7TS0RPg4" d="M98.678,153.356C107.889,153.356,115.356,145.889,115.356,136.678C115.356,127.467,107.889,120,98.678,120C89.467,120,82,127.467,82,136.678C82,145.889,89.467,153.356,98.678,153.356Z" fill="rgb(0,0,0)" stroke="none" stroke-width="1"/><path id="eMHX7TS0RPg5" d="M101.678,336.356C110.889,336.356,118.356,328.889,118.356,319.678C118.356,310.467,110.889,303,101.678,303C92.467,303,85,310.467,85,319.678C85,328.889,92.467,336.356,101.678,336.356Z" fill="rgb(0,0,0)" stroke="none" stroke-width="1"/><path id="eMHX7TS0RPg6" d="M334.678,200.356C343.889,200.356,351.356,192.889,351.356,183.678C351.356,174.467,343.889,167,334.678,167C325.467,167,318,174.467,318,183.678C318,192.889,325.467,200.356,334.678,200.356Z" fill="rgb(0,0,0)" stroke="none" stroke-width="1"/><path id="eMHX7TS0RPg7" d="M118.4,150.7L177.999,221" fill="none" stroke="rgb(0,0,0)" stroke-width="2" stroke-dasharray="4,8,12,16"/><line id="eMHX7TS0RPg8" x1="0" y1="-1" x2="108.6" y2="-1" transform="matrix(-0.598526 0.801104 0.801104 0.598526 81 153)" fill="none" stroke="rgb(0,0,0)" stroke-width="2" stroke-dasharray="4,8,12,16"/><line id="eMHX7TS0RPg9" x1="183.701" y1="265.713" x2="127.701" y2="320.713" fill="none" stroke="rgb(0,0,0)" stroke-width="2" stroke-dasharray="4,8,12,16"/><line id="eMHX7TS0RPg10" x1="29.6764" y1="274.263" x2="78.6764" y2="319.263" fill="none" stroke="rgb(0,0,0)" stroke-width="2" stroke-dasharray="4,8,12,16"/><path id="eMHX7TS0RPg11" d="M210,271L250.5,326" fill="none" stroke="rgb(0,0,0)" stroke-width="2" stroke-dasharray="4,8,12,16"/><path id="eMHX7TS0RPg12" d="M327.043,210L270.81,320.422" fill="none" stroke="rgb(0,0,0)" stroke-width="2" stroke-dasharray="4,8,12,16"/><line id="eMHX7TS0RPg13" x1="173.841" y1="25.5403" x2="112.841" y2="120.54" fill="none" stroke="rgb(0,0,0)" stroke-width="2" stroke-dasharray="4,8,12,16"/><path id="eMHX7TS0RPg14" d="M312.234,194.443L232.502,233.5" fill="none" stroke="rgb(0,0,0)" stroke-width="2" stroke-dasharray="4,8,12,16"/><path id="eMHX7TS0RPg15" d="M14.2422,274.301C22.1079,274.301,28.4843,267.965,28.4843,260.15C28.4843,252.335,22.1079,246,14.2422,246C6.37644,246,0,252.335,0,260.15C0,267.965,6.37644,274.301,14.2422,274.301Z" fill="rgb(0,0,0)" stroke="none" stroke-width="1"/><path id="eMHX7TS0RPg16" d="M264.242,352.301C272.108,352.301,278.484,345.965,278.484,338.15C278.484,330.335,272.108,324,264.242,324C256.376,324,250,330.335,250,338.15C250,345.965,256.376,352.301,264.242,352.301Z" fill="rgb(0,0,0)" stroke="none" stroke-width="1"/></svg>