<svg id="ep6K7i29DJY1" xmlns="http://www.w3.org/2000/svg" xmlns:xlink="http://www.w3.org/1999/xlink" viewBox="0 0 284 339" shape-rendering="geometricPrecision" text-rendering="geometricPrecision"><style><![CDATA[#ep6K7i29DJY2 {animation: ep6K7i29DJY2_s_do 20000ms linear infinite normal forwards}@keyframes ep6K7i29DJY2_s_do { 0% {stroke-dashoffset: 0} 100% {stroke-dashoffset: 250}} #ep6K7i29DJY3 {animation: ep6K7i29DJY3_s_do 20000ms linear infinite normal forwards}@keyframes ep6K7i29DJY3_s_do { 0% {stroke-dashoffset: 0} 100% {stroke-dashoffset: 250}} #ep6K7i29DJY4 {animation: ep6K7i29DJY4_s_do 20000ms linear infinite normal forwards}@keyframes ep6K7i29DJY4_s_do { 0% {stroke-dashoffset: 0} 100% {stroke-dashoffset: 250}} #ep6K7i29DJY5 {animation: ep6K7i29DJY5_s_do 20000ms linear infinite normal forwards}@keyframes ep6K7i29DJY5_s_do { 0% {stroke-dashoffset: 0} 100% {stroke-dashoffset: 250}} #ep6K7i29DJY6 {animation: ep6K7i29DJY6_s_do 20000ms linear infinite normal forwards}@keyframes ep6K7i29DJY6_s_do { 0% {stroke-dashoffset: 0} 100% {stroke-dashoffset: 250}} #ep6K7i29DJY7 {animation: ep6K7i29DJY7_s_do 20000ms linear infinite normal forwards}@keyframes ep6K7i29DJY7_s_do { 0% {stroke-dashoffset: 0} 100% {stroke-dashoffset: 250}} #ep6K7i29DJY8 {animation: ep6K7i29DJY8_s_do 20000ms linear infinite normal forwards}@keyframes ep6K7i29DJY8_s_do { 0% {stroke-dashoffset: 0} 100% {stroke-dashoffset: 250}} #ep6K7i29DJY9 {animation: ep6K7i29DJY9_s_do 20000ms linear infinite normal forwards}@keyframes ep6K7i29DJY9_s_do { 0% {stroke-dashoffset: 0} 100% {stroke-dashoffset: 250}} #ep6K7i29DJY10 {animation: ep6K7i29DJY10_s_do 20000ms linear infinite normal forwards}@keyframes ep6K7i29DJY10_s_do { 0% {stroke-dashoffset: 0} 100% {stroke-dashoffset: 250}} #ep6K7i29DJY11 {animation: ep6K7i29DJY11_s_do 20000ms linear infinite normal forwards}@keyframes ep6K7i29DJY11_s_do { 0% {stroke-dashoffset: 0} 100% {stroke-dashoffset: 250}} #ep6K7i29DJY12 {animation: ep6K7i29DJY12_s_do 20000ms linear infinite normal forwards}@keyframes ep6K7i29DJY12_s_do { 0% {stroke-dashoffset: 0} 100% {stroke-dashoffset: 250}} #ep6K7i29DJY13 {animation: ep6K7i29DJY13_s_do 20000ms linear infinite normal forwards}@keyframes ep6K7i29DJY13_s_do { 0% {stroke-dashoffset: 0} 100% {stroke-dashoffset: 250}} #ep6K7i29DJY14 {animation: ep6K7i29DJY14_s_do 20000ms linear infinite normal forwards}@keyframes ep6K7i29DJY14_s_do { 0% {stroke-dashoffset: 0} 100% {stroke-dashoffset: 250}} #ep6K7i29DJY15 {animation: ep6K7i29DJY15_s_do 20000ms linear infinite normal forwards}@keyframes ep6K7i29DJY15_s_do { 0% {stroke-dashoffset: 0} 100% {stroke-dashoffset: 250}} #ep6K7i29DJY16 {animation: ep6K7i29DJY16_s_do 20000ms linear infinite normal forwards}@keyframes ep6K7i29DJY16_s_do { 0% {stroke-dashoffset: 0} 100% {stroke-dashoffset: 250}} #ep6K7i29DJY17 {animation: ep6K7i29DJY17_s_do 20000ms linear infinite normal forwards}@keyframes ep6K7i29DJY17_s_do { 0% {stroke-dashoffset: 0} 100% {stroke-dashoffset: 250}}]]></style><path id="ep6K7i29DJY2" d="M273.893,143.557L186.345,6.02976" fill="none" stroke="rgb(0,0,0)" stroke-width="2" stroke-dasharray="4,8,12,16"/><path id="ep6K7i29DJY3" d="M273.895,142.59L186.391,280.146" fill="none" stroke="rgb(0,0,0)" stroke-width="2" stroke-dasharray="4,8,12,16"/><path id="ep6K7i29DJY4" d="M186.816,6.03125L98.2692,143.585" fill="none" stroke="rgb(0,0,0)" stroke-width="2" stroke-dasharray="4,8,12,16"/><path id="ep6K7i29DJY5" d="M186.397,279.041L96.7644,143.598" fill="none" stroke="rgb(0,0,0)" stroke-width="2" stroke-dasharray="4,8,12,16"/><path id="ep6K7i29DJY6" d="M259.589,143.593C259.591,150.211,264.957,155.576,271.575,155.575C278.193,155.573,283.558,150.207,283.557,143.589C283.556,136.971,278.189,131.606,271.571,131.607C264.953,131.608,259.588,136.975,259.589,143.593Z" fill="rgb(0,0,0)" stroke="none" stroke-width="1"/><path id="ep6K7i29DJY7" d="M175.093,276.345C175.094,282.963,180.461,288.328,187.079,288.326C193.697,288.325,199.062,282.959,199.061,276.341C199.059,269.723,193.693,264.358,187.075,264.359C180.457,264.36,175.092,269.727,175.093,276.345Z" fill="rgb(0,0,0)" stroke="none" stroke-width="1"/><path id="ep6K7i29DJY8" d="M111.539,147.856C111.54,156.466,118.521,163.444,127.131,163.443C135.74,163.441,142.719,156.461,142.717,147.851C142.716,139.241,135.735,132.263,127.126,132.264C118.516,132.266,111.538,139.246,111.539,147.856Z" fill="rgb(0,0,0)" stroke="none" stroke-width="1"/><path id="ep6K7i29DJY9" d="M135.199,186.557C135.201,195.167,142.181,202.145,150.791,202.144C159.401,202.142,166.379,195.162,166.378,186.552C166.376,177.942,159.395,170.964,150.786,170.965C142.176,170.967,135.198,177.947,135.199,186.557Z" fill="rgb(0,0,0)" stroke="none" stroke-width="1"/><path id="ep6K7i29DJY10" d="M175.05,12.0011C175.052,18.6194,180.418,23.9838,187.036,23.9827C193.654,23.9817,199.019,18.6156,199.018,11.9972C199.016,5.3789,193.65,0.014539,187.032,0.015608C180.414,0.016677,175.049,5.38277,175.05,12.0011Z" fill="rgb(0,0,0)" stroke="none" stroke-width="1"/><path id="ep6K7i29DJY11" d="M182.186,193.92L94.6376,56.393" fill="none" stroke="rgb(0,0,0)" stroke-width="2" stroke-dasharray="4,8,12,16"/><path id="ep6K7i29DJY12" d="M182.188,192.957L94.684,330.513" fill="none" stroke="rgb(0,0,0)" stroke-width="2" stroke-dasharray="4,8,12,16"/><path id="ep6K7i29DJY13" d="M95.1094,56.3965L6.56221,193.95" fill="none" stroke="rgb(0,0,0)" stroke-width="2" stroke-dasharray="4,8,12,16"/><path id="ep6K7i29DJY14" d="M94.6938,329.406L5.06129,193.964" fill="none" stroke="rgb(0,0,0)" stroke-width="2" stroke-dasharray="4,8,12,16"/><path id="ep6K7i29DJY15" d="M0.026995,193.985C0.028064,200.604,5.39416,205.968,12.0125,205.967C18.6308,205.966,23.9952,200.6,23.9941,193.982C23.9931,187.363,18.627,181.999,12.0086,182C5.39028,182.001,0.025925,187.367,0.026995,193.985Z" fill="rgb(0,0,0)" stroke="none" stroke-width="1"/><path id="ep6K7i29DJY16" d="M83.3903,326.71C83.3913,333.328,88.7574,338.693,95.3758,338.692C101.994,338.691,107.358,333.325,107.357,326.706C107.356,320.088,101.99,314.724,95.3719,314.725C88.7536,314.726,83.3892,320.092,83.3903,326.71Z" fill="rgb(0,0,0)" stroke="none" stroke-width="1"/><path id="ep6K7i29DJY17" d="M83.3473,62.3663C83.3484,68.9847,88.7145,74.349,95.3328,74.348C101.951,74.3469,107.316,68.9808,107.314,62.3625C107.313,55.7441,101.947,50.3798,95.3289,50.3808C88.7106,50.3819,83.3462,55.748,83.3473,62.3663Z" fill="rgb(0,0,0)" stroke="none" stroke-width="1"/></svg>