<svg id="eYHKa9Jc0BV1" xmlns="http://www.w3.org/2000/svg" xmlns:xlink="http://www.w3.org/1999/xlink" viewBox="0 0 370 336" shape-rendering="geometricPrecision" text-rendering="geometricPrecision"><style><![CDATA[#eYHKa9Jc0BV2 {animation: eYHKa9Jc0BV2_s_do 20000ms linear infinite normal forwards}@keyframes eYHKa9Jc0BV2_s_do { 0% {stroke-dashoffset: 0} 100% {stroke-dashoffset: 250}} #eYHKa9Jc0BV3 {animation: eYHKa9Jc0BV3_s_do 20000ms linear infinite normal forwards}@keyframes eYHKa9Jc0BV3_s_do { 0% {stroke-dashoffset: 0} 100% {stroke-dashoffset: 250}} #eYHKa9Jc0BV4 {animation: eYHKa9Jc0BV4_s_do 20000ms linear infinite normal forwards}@keyframes eYHKa9Jc0BV4_s_do { 0% {stroke-dashoffset: 0} 100% {stroke-dashoffset: 250}} #eYHKa9Jc0BV5 {animation: eYHKa9Jc0BV5_s_do 20000ms linear infinite normal forwards}@keyframes eYHKa9Jc0BV5_s_do { 0% {stroke-dashoffset: 0} 100% {stroke-dashoffset: 250}} #eYHKa9Jc0BV6 {animation: eYHKa9Jc0BV6_s_do 20000ms linear infinite normal forwards}@keyframes eYHKa9Jc0BV6_s_do { 0% {stroke-dashoffset: 0} 100% {stroke-dashoffset: 250}} #eYHKa9Jc0BV7 {animation: eYHKa9Jc0BV7_s_do 20000ms linear infinite normal forwards}@keyframes eYHKa9Jc0BV7_s_do { 0% {stroke-dashoffset: 0} 100% {stroke-dashoffset: 250}} #eYHKa9Jc0BV8 {animation: eYHKa9Jc0BV8_s_do 20000ms linear infinite normal forwards}@keyframes eYHKa9Jc0BV8_s_do { 0% {stroke-dashoffset: 0} 100% {stroke-dashoffset: 250}} #eYHKa9Jc0BV9 {animation: eYHKa9Jc0BV9_s_do 20000ms linear infinite normal forwards}@keyframes eYHKa9Jc0BV9_s_do { 0% {stroke-dashoffset: 0} 100% {stroke-dashoffset: 250}} #eYHKa9Jc0BV10 {animation: eYHKa9Jc0BV10_s_do 20000ms linear infinite normal forwards}@keyframes eYHKa9Jc0BV10_s_do { 0% {stroke-dashoffset: 0} 100% {stroke-dashoffset: 250}} #eYHKa9Jc0BV11 {animation: eYHKa9Jc0BV11_s_do 20000ms linear infinite normal forwards}@keyframes eYHKa9Jc0BV11_s_do { 0% {stroke-dashoffset: 0} 100% {stroke-dashoffset: 250}} #eYHKa9Jc0BV12 {animation: eYHKa9Jc0BV12_s_do 20000ms linear infinite normal forwards}@keyframes eYHKa9Jc0BV12_s_do { 0% {stroke-dashoffset: 0} 100% {stroke-dashoffset: 250}} #eYHKa9Jc0BV13 {animation: eYHKa9Jc0BV13_s_do 20000ms linear infinite normal forwards}@keyframes eYHKa9Jc0BV13_s_do { 0% {stroke-dashoffset: 0} 100% {stroke-dashoffset: 250}} #eYHKa9Jc0BV14 {animation: eYHKa9Jc0BV14_s_do 20000ms linear infinite normal forwards}@keyframes eYHKa9Jc0BV14_s_do { 0% {stroke-dashoffset: 0} 100% {stroke-dashoffset: 250}} #eYHKa9Jc0BV15 {animation: eYHKa9Jc0BV15_s_do 20000ms linear infinite normal forwards}@keyframes eYHKa9Jc0BV15_s_do { 0% {stroke-dashoffset: 0} 100% {stroke-dashoffset: 250}} #eYHKa9Jc0BV16 {animation: eYHKa9Jc0BV16_s_do 20000ms linear infinite normal forwards}@keyframes eYHKa9Jc0BV16_s_do { 0% {stroke-dashoffset: 0} 100% {stroke-dashoffset: 250}} #eYHKa9Jc0BV17 {animation: eYHKa9Jc0BV17_s_do 20000ms linear infinite normal forwards}@keyframes eYHKa9Jc0BV17_s_do { 0% {stroke-dashoffset: 0} 100% {stroke-dashoffset: 250}} #eYHKa9Jc0BV18 {animation: eYHKa9Jc0BV18_s_do 20000ms linear infinite normal forwards}@keyframes eYHKa9Jc0BV18_s_do { 0% {stroke-dashoffset: 0} 100% {stroke-dashoffset: 250}} #eYHKa9Jc0BV19 {animation: eYHKa9Jc0BV19_s_do 20000ms linear infinite normal forwards}@keyframes eYHKa9Jc0BV19_s_do { 0% {stroke-dashoffset: 0} 100% {stroke-dashoffset: 250}} #eYHKa9Jc0BV20 {animation: eYHKa9Jc0BV20_s_do 20000ms linear infinite normal forwards}@keyframes eYHKa9Jc0BV20_s_do { 0% {stroke-dashoffset: 0} 100% {stroke-dashoffset: 250}}]]></style><path id="eYHKa9Jc0BV2" d="M349.286,119.559L250,185.723" fill="none" stroke="rgb(0,0,0)" stroke-width="2" stroke-dasharray="4,8,12,16"/><path id="eYHKa9Jc0BV3" d="M269.286,57.082L170,123.244" fill="none" stroke="rgb(0,0,0)" stroke-width="2" stroke-dasharray="4,8,12,16"/><path id="eYHKa9Jc0BV4" d="M329.286,220.541L230,286.703" fill="none" stroke="rgb(0,0,0)" stroke-width="2" stroke-dasharray="4,8,12,16"/><path id="eYHKa9Jc0BV5" d="M180.715,217.945L131.073,251.026L81.4297,284.107" fill="none" stroke="rgb(0,0,0)" stroke-width="2" stroke-dasharray="4,8,12,16"/><path id="eYHKa9Jc0BV6" d="M140.715,74.8359L41.4297,140.998" fill="none" stroke="rgb(0,0,0)" stroke-width="2" stroke-dasharray="4,8,12,16"/><path id="eYHKa9Jc0BV7" d="M106.43,168.648L7.14453,234.811" fill="none" stroke="rgb(0,0,0)" stroke-width="2" stroke-dasharray="4,8,12,16"/><path id="eYHKa9Jc0BV8" d="M328.547,213.076C332.95,213.076,336.52,216.318,336.52,220.316C336.52,224.315,332.95,227.557,328.547,227.557C324.144,227.557,320.574,224.315,320.574,220.316C320.574,216.318,324.144,213.076,328.547,213.076Z" fill="rgb(0,0,0)" stroke="none" stroke-width="1"/><path id="eYHKa9Jc0BV9" d="M328.547,213.076C332.95,213.076,336.52,216.318,336.52,220.316C336.52,224.315,332.95,227.557,328.547,227.557C324.144,227.557,320.574,224.315,320.574,220.316C320.574,216.318,324.144,213.076,328.547,213.076Z" fill="none" stroke="rgb(0,0,0)" stroke-width="1"/><path id="eYHKa9Jc0BV10" d="M182.559,208.865C186.962,208.865,190.532,212.107,190.532,216.105C190.532,220.104,186.962,223.346,182.559,223.346C178.156,223.346,174.586,220.104,174.586,216.105C174.586,212.107,178.156,208.865,182.559,208.865Z" fill="rgb(0,0,0)" stroke="none" stroke-width="1"/><path id="eYHKa9Jc0BV11" d="M182.559,208.865C186.962,208.865,190.532,212.107,190.532,216.105C190.532,220.104,186.962,223.346,182.559,223.346C178.156,223.346,174.586,220.104,174.586,216.105C174.586,212.107,178.156,208.865,182.559,208.865Z" fill="none" stroke="rgb(0,0,0)" stroke-width="1"/><path id="eYHKa9Jc0BV12" d="M106,162.008C101.597,162.008,98.0269,165.249,98.0269,169.248C98.0269,173.247,101.597,176.488,106,176.488C110.403,176.488,113.973,173.247,113.973,169.248C113.973,165.249,110.403,162.008,106,162.008Z" fill="rgb(0,0,0)" stroke="none" stroke-width="1"/><path id="eYHKa9Jc0BV13" d="M106,162.008C101.597,162.008,98.0269,165.249,98.0269,169.248C98.0269,173.247,101.597,176.488,106,176.488C110.403,176.488,113.973,173.247,113.973,169.248C113.973,165.249,110.403,162.008,106,162.008Z" fill="none" stroke="rgb(0,0,0)" stroke-width="1"/><path id="eYHKa9Jc0BV14" d="M269.078,63.7773C273.482,63.7773,277.051,60.5358,277.051,56.5371C277.051,52.5384,273.482,49.2969,269.078,49.2969C264.675,49.2969,261.105,52.5384,261.105,56.5371C261.105,60.5358,264.675,63.7773,269.078,63.7773Z" fill="rgb(0,0,0)" stroke="none" stroke-width="1"/><path id="eYHKa9Jc0BV15" d="M269.078,63.7773C273.482,63.7773,277.051,60.5358,277.051,56.5371C277.051,52.5384,273.482,49.2969,269.078,49.2969C264.675,49.2969,261.105,52.5384,261.105,56.5371C261.105,60.5358,264.675,63.7773,269.078,63.7773Z" fill="none" stroke="rgb(0,0,0)" stroke-width="1"/><path id="eYHKa9Jc0BV16" d="M139.695,81.9394C144.099,81.9394,147.668,78.6979,147.668,74.6992C147.668,70.7005,144.099,67.459,139.695,67.459C135.292,67.459,131.723,70.7005,131.723,74.6992C131.723,78.6979,135.292,81.9394,139.695,81.9394Z" fill="rgb(0,0,0)" stroke="none" stroke-width="1"/><path id="eYHKa9Jc0BV17" d="M139.695,81.9394C144.099,81.9394,147.668,78.6979,147.668,74.6992C147.668,70.7005,144.099,67.459,139.695,67.459C135.292,67.459,131.723,70.7005,131.723,74.6992C131.723,78.6979,135.292,81.9394,139.695,81.9394Z" fill="none" stroke="rgb(0,0,0)" stroke-width="1"/><path id="eYHKa9Jc0BV18" d="M352.117,123.453C356.521,123.453,360.09,120.212,360.09,116.213C360.09,112.214,356.521,108.973,352.117,108.973C347.714,108.973,344.145,112.214,344.145,116.213C344.145,120.212,347.714,123.453,352.117,123.453Z" fill="rgb(0,0,0)" stroke="none" stroke-width="1"/><path id="eYHKa9Jc0BV19" d="M352.117,123.453C356.521,123.453,360.09,120.212,360.09,116.213C360.09,112.214,356.521,108.973,352.117,108.973C347.714,108.973,344.145,112.214,344.145,116.213C344.145,120.212,347.714,123.453,352.117,123.453Z" fill="none" stroke="rgb(0,0,0)" stroke-width="1"/><path id="eYHKa9Jc0BV20" d="M195.958,184.657C209.505,184.657,220.487,174.684,220.487,162.382C220.487,150.08,209.505,140.107,195.958,140.107C182.411,140.107,171.43,150.08,171.43,162.382C171.43,174.684,182.411,184.657,195.958,184.657Z" fill="rgb(0,0,0)" stroke="none" stroke-width="1"/></svg>