<svg width="44" height="42" viewBox="0 0 44 42" fill="none" xmlns="http://www.w3.org/2000/svg">
<path d="M21.087 0.868134C20.5347 0.868134 20.087 1.31585 20.087 1.86813C20.087 2.42042 20.5347 2.86813 21.087 2.86813V0.868134ZM43 1.86813H44C44 1.31585 43.5523 0.868134 43 0.868134V1.86813ZM43 34.6173V35.6173C43.5523 35.6173 44 35.1696 44 34.6173H43ZM0.292893 33.9102C-0.0976311 34.3007 -0.0976311 34.9339 0.292893 35.3244L6.65685 41.6884C7.04738 42.0789 7.68054 42.0789 8.07107 41.6884C8.46159 41.2978 8.46159 40.6647 8.07107 40.2741L2.41421 34.6173L8.07107 28.9604C8.46159 28.5699 8.46159 27.9368 8.07107 27.5462C7.68054 27.1557 7.04738 27.1557 6.65685 27.5462L0.292893 33.9102ZM21.087 2.86813H43V0.868134H21.087V2.86813ZM42 1.86813V34.6173H44V1.86813H42ZM43 33.6173H1V35.6173H43V33.6173Z" fill="black"/>
</svg>
