<svg width="128" height="134" viewBox="0 0 128 134" fill="none" xmlns="http://www.w3.org/2000/svg">
  <path fill="url(#grad)" fill-rule="evenodd" clip-rule="evenodd" d="M62.7199 6.24875C74.779 7.66873 86.4175 10.8705 96.2769 17.9907C106.177 25.1399 113.681 34.9076 118.173 46.2956C122.905 58.2913 126.319 71.5973 122.25 83.8361C118.196 96.0309 106.716 103.382 96.5849 111.236C86.1244 119.346 75.9205 129.433 62.7199 129.987C49.3104 130.55 37.0269 122.823 26.7353 114.167C16.981 105.963 10.3721 94.9298 6.54482 82.7406C2.74485 70.6383 2.45137 58.0085 5.21388 45.6255C8.21893 32.1553 11.5641 17.1262 22.9169 9.35246C34.1897 1.63354 49.1712 4.65339 62.7199 6.24875Z" stroke="black" />
  <defs>
    <linearGradient id="grad" x1="63.7207" y1="4.30768" x2="63.7207" y2="130.016" gradientUnits="userSpaceOnUse">
      <stop stop-color="#D2F5F8" />
      <stop offset="1" stop-color="#D7D9FF" />
    </linearGradient>
  </defs>
</svg>