<svg width="100" height="101" viewBox="0 0 100 101" fill="none" xmlns="http://www.w3.org/2000/svg">
  <path fill="url(#grad)" fill-rule="evenodd" clip-rule="evenodd" d="M48.3806 1.02412C58.8483 0.553739 68.1146 7.04386 76.5817 13.3742C85.0364 19.6952 93.1098 27.0014 96.6387 37.1037C100.231 47.3877 99.6344 58.7862 96.0366 69.0682C92.5137 79.1366 85.7395 87.7672 76.9159 93.4702C68.4719 98.928 58.3596 100.064 48.3806 99.8707C38.5729 99.6811 28.4942 98.3769 20.6164 92.3816C12.7827 86.4198 8.90867 76.8589 5.71932 67.4037C2.47073 57.7728 -0.842338 47.4975 2.20461 37.7976C5.25486 28.0871 14.063 22.0872 21.9195 15.8305C30.0548 9.35177 38.0909 1.48651 48.3806 1.02412Z" stroke="black" />
  <defs>
    <linearGradient id="grad" x1="63.7207" y1="4.30768" x2="63.7207" y2="130.016" gradientUnits="userSpaceOnUse">
      <stop stop-color="#D2F5F8" />
      <stop offset="1" stop-color="#D7D9FF" />
    </linearGradient>
  </defs>
</svg>