<svg width="129" height="98" viewBox="0 0 129 98" fill="none" xmlns="http://www.w3.org/2000/svg">
  <path fill="url(#grad)" fill-rule="evenodd" clip-rule="evenodd" d="M65.1991 1.05967C78.2825 1.61091 88.2311 9.29753 98.8047 15.2378C109.335 21.1537 122.197 25.9958 126.443 35.467C130.714 44.9928 125.303 55.1417 120.956 64.6471C116.711 73.9292 112.065 83.5191 101.783 89.3909C91.438 95.2982 78.0798 96.9257 65.1991 96.4873C52.7501 96.0636 41.531 91.9672 30.899 86.9784C19.3638 81.5659 5.40578 76.562 1.541 66.6176C-2.30781 56.7143 6.78386 47.0234 11.6229 37.3794C16.158 28.3413 19.3442 18.6998 28.8018 12.2885C38.8482 5.47785 51.8155 0.495798 65.1991 1.05967Z" stroke="black" />
  <defs>
    <linearGradient id="grad" x1="63.7207" y1="4.30768" x2="63.7207" y2="130.016" gradientUnits="userSpaceOnUse">
      <stop stop-color="#D2F5F8" />
      <stop offset="1" stop-color="#D7D9FF" />
    </linearGradient>
  </defs>
</svg>